<?xml version="1.0" encoding="utf-8"?>
<!-- Generator: Adobe Illustrator 19.0.0, SVG Export Plug-In . SVG Version: 6.00 Build 0)  -->
<svg version="1.1" id="Calque_1" xmlns="http://www.w3.org/2000/svg" xmlns:xlink="http://www.w3.org/1999/xlink" x="0px" y="0px"
	 viewBox="-33 34 33 33" style="enable-background:new -33 34 33 33;" xml:space="preserve">
<style type="text/css">
	.st0{fill:#FFFFFF;}
</style>
<g id="Page-1">
	<g id="Search" transform="translate(-60.000000, -58.000000)">
		<g id="Logo-Tête" transform="translate(60.000000, 58.000000)">
			<g id="Group-3" transform="translate(28.000000, 0.000000)">
				<g id="Clip-2">
				</g>
				<path id="Fill-1" class="st0" d="M-28.8,34.9c0.9,0.9,0.9,2.5,0,3.4s-2.5,0.9-3.4,0c-0.9-0.9-0.9-2.5,0-3.4
					C-31.3,33.9-29.7,33.9-28.8,34.9"/>
			</g>
			<path id="Fill-4" class="st0" d="M-10.6,44.7c1,1,1,2.6,0,3.5c-1,1-2.6,1-3.5,0c-1-1-1-2.6,0-3.5C-13.2,43.8-11.6,43.8-10.6,44.7
				"/>
			<g id="Group-8">
				<g id="Clip-7">
				</g>
				<path id="Fill-6" class="st0" d="M-16.5,60.1c-5.2,0-9.5-4.3-9.5-9.5s4.3-9.5,9.5-9.5S-7,45.4-7,50.6S-11.3,60.1-16.5,60.1
					 M-16.5,34.1c-9,0-16.4,7.4-16.4,16.4c0,9.1,7.4,16.4,16.4,16.4s16.4-7.4,16.4-16.4C-0.1,41.5-7.5,34.1-16.5,34.1"/>
			</g>
		</g>
	</g>
</g>
</svg>
